<?xml version="1.0" encoding="UTF-8"?>
<svg version="1.1" xmlns="http://www.w3.org/2000/svg" width="512" height="512">
<path d="M0 0 C3.47195248 0.11527967 5.49828003 0.31533127 8.5 2.19140625 C10.58010563 5.57157791 10.28530378 7.6742789 10 11.62890625 C9.19508813 14.64490549 8.12106587 17.53016989 7 20.44140625 C4.87859036 25.40877194 4.87859036 25.40877194 4 30.62890625 C4.77525024 30.92172485 4.77525024 30.92172485 5.56616211 31.22045898 C29.18229961 40.21373029 54.92765968 52.24428507 72 71.62890625 C72.45377473 75.25910407 72.43699866 77.65208572 70.9375 81.00390625 C67.99108373 83.47509409 65.8063221 83.62890625 62 83.62890625 C58.15102052 81.34822642 54.71646549 78.64965901 51.25561523 75.82226562 C43.6070237 69.58427951 35.55317212 64.52225859 27 59.62890625 C25.33078924 58.63315869 23.66304975 57.63490988 22 56.62890625 C22.12438689 58.39978276 22.24959503 60.17060155 22.375 61.94140625 C22.46394531 63.235625 22.55289062 64.52984375 22.64453125 65.86328125 C22.89271739 69.33639664 23.19381605 72.80213348 23.51171875 76.26953125 C26.47818944 109.95715179 26.20478535 144.24916957 20.65950012 177.65585327 C20.53592542 178.40090811 20.41235071 179.14596294 20.28503132 179.9135952 C20.19097098 180.47964785 20.09691065 181.04570049 20 181.62890625 C21.53066605 181.98032181 21.53066605 181.98032181 23.09225464 182.33883667 C33.72549851 184.79913917 44.27945926 187.49673567 54.8203125 190.32421875 C56.46071066 190.76231736 58.10116392 191.20020973 59.7416687 191.63790894 C63.14198761 192.54566802 66.54187643 193.45501296 69.94140625 194.36572266 C74.28353572 195.52894134 78.62639421 196.68940893 82.96953011 197.8488636 C87.14919204 198.9647717 91.32852667 200.08190304 95.5078125 201.19921875 C96.29386997 201.40928684 97.07992744 201.61935493 97.88980484 201.83578873 C100.12349248 202.43299255 102.35694941 203.03105115 104.59033203 203.62939453 C105.85587921 203.96818634 107.12142639 204.30697815 108.42532349 204.65603638 C111.9594597 205.61787296 115.48057815 206.61484394 119 207.62890625 C115.16123195 170.70406886 104.46082884 135.44642321 81.21484375 105.875 C79.63460564 102.9533379 79.67430047 100.90374809 80 97.62890625 C82.06895165 94.6846289 83.50909927 93.7855767 86.9375 92.69140625 C90.77034863 92.61318485 91.92501342 93.35688353 95 95.62890625 C96.93558238 97.84934091 98.55984122 100.23942945 100.1875 102.69140625 C100.89869995 103.74944458 100.89869995 103.74944458 101.62426758 104.82885742 C122.55770129 136.48115518 133.98478898 171.77399662 136 209.62890625 C136.09510864 211.03148682 136.09510864 211.03148682 136.19213867 212.46240234 C136.45775112 218.96294688 135.58085882 222.85491323 131.8125 228.12890625 C131.37268799 228.78544189 130.93287598 229.44197754 130.47973633 230.1184082 C129.52276724 231.53919151 128.5541295 232.95217089 127.57519531 234.35791016 C125.89091721 236.78617346 124.25212585 239.24140159 122.6171875 241.703125 C121.47552108 243.40859924 120.33231545 245.11304422 119.1875 246.81640625 C118.64907471 247.61820313 118.11064941 248.42 117.5559082 249.24609375 C113.32974233 255.4180118 109.2539074 260.97844009 102 263.62890625 C92.96537538 264.47040799 84.59317845 261.7307621 75.9609375 259.39453125 C74.3092351 258.95501832 72.65734565 258.51620777 71.00527954 258.07806396 C67.55558471 257.16047133 64.10813173 256.23499768 60.66210938 255.30371094 C56.26019532 254.11469227 51.85349218 252.94469573 47.44496727 251.78046036 C44.0370978 250.87838891 40.63186354 249.96668238 37.22734451 249.05205536 C35.60390864 248.6170559 33.97970626 248.18490608 32.35471725 247.75574493 C30.07928375 247.1531565 27.80769252 246.53774209 25.53662109 245.91894531 C24.87462204 245.74631165 24.21262299 245.57367798 23.53056335 245.39581299 C17.70399407 243.78264235 11.60634387 241.38941279 8.125 236.19140625 C7.54105469 235.35802734 7.54105469 235.35802734 6.9453125 234.5078125 C4.72695424 230.0985963 4.75453645 225.16253485 4.4375 220.31640625 C4.31181641 218.43501953 4.31181641 218.43501953 4.18359375 216.515625 C4.12300781 215.56300781 4.06242187 214.61039063 4 213.62890625 C3.35933594 214.593125 2.71867187 215.55734375 2.05859375 216.55078125 C1.18565242 217.82734062 0.31191162 219.10335355 -0.5625 220.37890625 C-0.98080078 221.013125 -1.39910156 221.64734375 -1.83007812 222.30078125 C-5.77410354 227.99441193 -10.01655762 231.28068725 -16.90234375 232.625 C-24.22905895 233.15844583 -31.55063558 230.57769763 -38.5625 228.69140625 C-40.06278011 228.30000769 -41.56342935 227.91002118 -43.06445312 227.52148438 C-46.71409847 226.57353223 -50.35820469 225.60656301 -54 224.62890625 C-54.11958069 225.76980713 -54.23916138 226.91070801 -54.36236572 228.08618164 C-54.93214333 232.61603238 -55.99715113 236.91506067 -57.20214844 241.3125 C-57.42547852 242.14447812 -57.64880859 242.97645624 -57.87890625 243.83364582 C-58.6173014 246.57930121 -59.36330144 249.3228283 -60.109375 252.06640625 C-60.63411215 254.01152711 -61.15837413 255.95677621 -61.68218994 257.90214539 C-63.07787757 263.08021542 -64.48012327 268.25648758 -65.88378906 273.43239975 C-67.32459363 278.74928155 -68.75966417 284.06771042 -70.1953125 289.38598633 C-72.44402182 297.71344515 -74.69617885 306.0399633 -76.95117188 314.36572266 C-79.48063402 323.70521847 -82.00093072 333.04714381 -84.515625 342.390625 C-85.4087288 345.70508551 -86.30217525 349.01945327 -87.19592285 352.33374023 C-87.72952605 354.31310269 -88.26265226 356.2925938 -88.79528809 358.2722168 C-89.50724423 360.91642989 -90.22189651 363.55989707 -90.9375 366.203125 C-91.13732483 366.94745285 -91.33714966 367.6917807 -91.54302979 368.45866394 C-92.88534156 373.39958936 -92.88534156 373.39958936 -94 375.62890625 C-85.75875354 375.59080155 -77.51805001 375.5313716 -69.27718163 375.44500351 C-65.450233 375.40555927 -61.62351341 375.37335614 -57.79638672 375.35791016 C-54.10025822 375.34272295 -50.40475949 375.30824221 -46.7089119 375.26059723 C-45.30163687 375.24580444 -43.89427192 375.23786644 -42.4869194 375.2370224 C-40.5098897 375.23464504 -38.53294925 375.20523679 -36.55615234 375.17480469 C-35.43252289 375.16592224 -34.30889343 375.15703979 -33.1512146 375.14788818 C-27.48742468 374.21510352 -23.66286645 370.54611584 -19.72265625 366.58203125 C-18.96146484 365.81890625 -18.20027344 365.05578125 -17.41601562 364.26953125 C-16.63935547 363.480625 -15.86269531 362.69171875 -15.0625 361.87890625 C-14.28970703 361.10546875 -13.51691406 360.33203125 -12.72070312 359.53515625 C-9.2599067 356.04803086 -5.89517084 352.52745052 -2.67822266 348.8137207 C2.79165287 342.52853299 8.67614184 336.6522591 14.54077148 330.73803711 C15.96840472 329.29384313 17.39065222 327.84430464 18.80737305 326.3894043 C33.11150132 311.70365562 46.70131795 301.43050655 68.0625 301.00390625 C78.27814304 301.03064877 87.26524206 303.47068934 96.82910156 306.87255859 C99.83342525 307.91927416 102.88823779 308.78557408 105.9375 309.69140625 C110.3516184 311.21889072 113.34694026 312.60357423 116 316.62890625 C117.50579562 320.92858771 117.53453013 323.49960068 115.5584259 327.67453003 C112.4715772 332.92348757 108.04283375 336.93023295 103.7175293 341.15673828 C102.76882371 342.09475933 101.82082935 343.03350017 100.87348938 343.97290039 C98.84234403 345.98448665 96.80677296 347.99144346 94.76770592 349.99499893 C91.54461842 353.16298553 88.33479049 356.34418389 85.12715149 359.52780151 C76.007644 368.57500964 66.87037568 377.60415706 57.72045898 386.62060547 C52.65943986 391.60803196 47.60921948 396.60614252 42.57039386 401.61599243 C39.3825987 404.78414926 36.18175454 407.93830781 32.97062814 411.08280587 C30.51359002 413.49647304 28.07611516 415.92959566 25.63549805 418.35986328 C24.74051605 419.22856049 23.84553406 420.09725769 22.9234314 420.99227905 C21.72252617 422.19905304 21.72252617 422.19905304 20.49736023 423.4302063 C19.7936967 424.12444262 19.09003317 424.81867893 18.3650465 425.53395271 C16.72237772 427.58350309 16.72237772 427.58350309 17.23329258 430.26625538 C17.94367801 432.45534697 18.71045881 434.50303405 19.68652344 436.58618164 C20.03068298 437.32788101 20.37484253 438.06958038 20.72943115 438.83375549 C21.10231262 439.62338181 21.47519409 440.41300812 21.859375 441.2265625 C22.24563049 442.05667343 22.63188599 442.88678436 23.02984619 443.74205017 C24.26479362 446.39425256 25.50692654 449.04300401 26.75 451.69140625 C29.51848821 457.6080392 32.27198323 463.53098638 34.99633789 469.46807861 C35.87231535 471.35400843 36.78019025 473.22505672 37.69335938 475.09326172 C40.18043756 480.42609756 41.23578238 484.55272677 41.12011719 490.47680664 C41.10277527 491.63314102 41.08543335 492.7894754 41.06756592 493.98085022 C41.04526917 494.85470871 41.02297241 495.7285672 41 496.62890625 C41.90566711 496.63033127 42.81133423 496.63175629 43.7444458 496.63322449 C52.27882168 496.65105266 60.81267871 496.69266045 69.34680557 496.76099682 C73.73436572 496.79529064 78.12157681 496.82038045 82.50927734 496.82446289 C86.74359756 496.82874082 90.97713005 496.85716041 95.21120453 496.90233803 C96.82668215 496.91532941 98.44225397 496.91961487 100.0577774 496.91506004 C102.32095933 496.91016519 104.58182892 496.93619064 106.84472656 496.96948242 C108.77665863 496.97947517 108.77665863 496.97947517 110.74761963 496.9896698 C114 497.62890625 114 497.62890625 116.45111084 499.94355774 C118 502.62890625 118 502.62890625 117.9375 506.25390625 C116.67371501 510.80353222 116.67371501 510.80353222 114 512.62890625 C111.35479368 512.9229597 108.9450534 513.03136453 106.29907227 513.00642967 C105.50297389 513.01078999 104.70687551 513.01515032 103.88665295 513.01964277 C101.19640121 513.03066489 98.50665497 513.02014486 95.81640625 513.00985718 C93.8772963 513.013311 91.93818832 513.01807369 89.99908447 513.02403891 C84.6528617 513.03661649 79.30679862 513.03034793 73.9605751 513.02108026 C68.20181419 513.01431765 62.44308154 513.02475709 56.68432617 513.03302002 C45.3959398 513.04638945 34.10761311 513.04346535 22.81922436 513.0347821 C13.64835811 513.02801856 4.47750865 513.02708306 -4.69335938 513.03035355 C-6.64808009 513.03104309 -6.64808009 513.03104309 -8.64229012 513.03174657 C-11.28925833 513.03270571 -13.93622653 513.03367835 -16.58319473 513.03466435 C-40.71962383 513.04298333 -64.85602148 513.03434292 -88.99244547 513.01863656 C-111.03925196 513.0043991 -133.08600647 513.00567295 -155.1328125 513.02001953 C-179.88663565 513.0360737 -204.64042886 513.04240358 -229.39425659 513.03318274 C-232.03171793 513.03222705 -234.66917928 513.03128394 -237.30664062 513.03035355 C-239.25337771 513.02965931 -239.25337771 513.02965931 -241.23944283 513.02895104 C-250.40377625 513.02635618 -259.56809129 513.03074282 -268.73242188 513.03779221 C-279.89425057 513.04618902 -291.05601594 513.04396547 -302.21783733 513.02794997 C-307.91736526 513.02004271 -313.61678745 513.0170173 -319.3163147 513.02689743 C-324.52721722 513.03579419 -329.73791533 513.03099489 -334.94879913 513.01496477 C-336.84040371 513.01159557 -338.73202533 513.01335856 -340.62361908 513.02059214 C-343.18235378 513.02963121 -345.74037568 513.02044395 -348.29907227 513.00642967 C-349.41702793 513.01696492 -349.41702793 513.01696492 -350.55756855 513.027713 C-355.50667327 512.97302467 -355.50667327 512.97302467 -357.92662048 511.28499854 C-359.59036663 508.71804332 -359.87835757 506.66996706 -360 503.62890625 C-358.86220128 501.30159069 -357.83159286 499.46049911 -356 497.62890625 C-354.65016252 497.50705482 -353.29425299 497.45123794 -351.93920898 497.42358398 C-351.07839218 497.40363876 -350.21757538 497.38369354 -349.33067322 497.36314392 C-347.92755638 497.33807518 -347.92755638 497.33807518 -346.49609375 497.3125 C-345.54307877 497.2917189 -344.59006378 497.27093781 -343.60816956 497.24952698 C-340.5513559 497.18392448 -337.49445344 497.12509707 -334.4375 497.06640625 C-332.37043337 497.02323119 -330.30337586 496.97961724 -328.23632812 496.93554688 C-323.15764405 496.82823224 -318.0788703 496.72699534 -313 496.62890625 C-313.20625 495.47390625 -313.4125 494.31890625 -313.625 493.12890625 C-314.54402192 485.62058291 -311.64355919 479.31074252 -308.5234375 472.62890625 C-308.19332672 471.90775635 -307.86321594 471.18660645 -307.52310181 470.44360352 C-306.48013591 468.16902953 -305.42776418 465.89895916 -304.375 463.62890625 C-303.66082859 462.07581026 -302.947281 460.52242725 -302.234375 458.96875 C-300.49677135 455.18544853 -298.75072559 451.40615232 -297 447.62890625 C-298.14597656 447.66371094 -299.29195312 447.69851563 -300.47265625 447.734375 C-302.00258939 447.76253328 -303.53253854 447.78983124 -305.0625 447.81640625 C-306.19075195 447.85411133 -306.19075195 447.85411133 -307.34179688 447.89257812 C-313.32235685 447.97024774 -318.39341862 447.14860159 -322.875 442.81640625 C-327.70288823 433.4288458 -324.24989469 417.70156728 -321.3125 408.06640625 C-315.98090991 394.25097207 -306.73678859 384.72629677 -293.26953125 378.5546875 C-284.46183055 374.96187327 -275.46750717 374.44870925 -266.0625 374.50390625 C-265.1758667 374.50801514 -264.2892334 374.51212402 -263.37573242 374.51635742 C-259.91696063 374.54239269 -256.45859704 374.58531405 -253 374.62890625 C-251.30794296 374.64699609 -249.61588565 374.66506072 -247.92382812 374.68310547 C-243.1838172 374.73651877 -238.4443716 374.80966596 -233.70480347 374.89337158 C-231.77757102 374.92537859 -229.85025165 374.95252393 -227.92288208 374.97479248 C-225.18380771 375.00806762 -222.44570501 375.06034991 -219.70703125 375.1171875 C-218.87355164 375.12358749 -218.04007202 375.12998749 -217.18133545 375.13658142 C-211.44074655 375.28400981 -211.44074655 375.28400981 -209.31816101 376.94499207 C-207.13584451 379.73284096 -207.05991904 382.1536018 -207 385.62890625 C-209.08625339 389.05632254 -210.1744311 390.35371662 -214 391.62890625 C-215.91528864 391.70273964 -217.83315697 391.71557608 -219.74975586 391.69482422 C-220.93206284 391.68506561 -222.11436981 391.67530701 -223.33250427 391.66525269 C-224.6136763 391.65068024 -225.89484833 391.63610779 -227.21484375 391.62109375 C-228.5494376 391.61159941 -229.88403808 391.60299743 -231.21864319 391.59524536 C-236.8783995 391.56175423 -242.53799984 391.52062344 -248.19750977 391.45751953 C-251.66339772 391.41945708 -255.12911954 391.39671936 -258.59518623 391.38321304 C-260.53588182 391.37142162 -262.47645643 391.34327766 -264.41697693 391.31466675 C-277.32059548 391.27785033 -287.80710445 393.43967055 -297.6875 401.94140625 C-303.84423912 409.0965355 -306.78658031 416.13496843 -308.125 425.50390625 C-308.29257812 426.65632813 -308.46015625 427.80875 -308.6328125 428.99609375 C-308.81457031 430.29933594 -308.81457031 430.29933594 -309 431.62890625 C-271.95407542 431.57001287 -234.90821389 431.49545538 -197.86236504 431.39991997 C-193.48775211 431.38865194 -189.11313886 431.37751347 -184.73852539 431.36645508 C-183.86762667 431.36425139 -182.99672795 431.36204771 -182.09943836 431.35977725 C-168.00203353 431.32441468 -153.90462875 431.29954467 -139.80719603 431.27855923 C-125.33956833 431.2567889 -110.87199814 431.22372675 -96.40441936 431.18020469 C-87.47872798 431.15370922 -78.55310823 431.13599835 -69.62737947 431.12956021 C-63.50485129 431.12429989 -57.38241323 431.10806128 -51.25993336 431.08324059 C-47.72873484 431.06924763 -44.19769754 431.0600465 -40.66646957 431.06389809 C-36.83343913 431.06795197 -33.00071798 431.04886308 -29.16773987 431.02763367 C-27.50282787 431.03490503 -27.50282787 431.03490503 -25.80428129 431.04232329 C-17.91156258 430.9702144 -9.99827146 430.25588893 -4.03831482 424.53413391 C-3.38437178 423.91741129 -2.73042873 423.30068867 -2.05666924 422.66527748 C-1.37796839 421.99327497 -0.69926754 421.32127247 0 420.62890625 C0.73181929 419.92073446 1.46363857 419.21256268 2.2176342 418.48293114 C4.7027635 416.0564514 7.15995778 413.6041305 9.61303711 411.14526367 C10.53918823 410.22086487 11.46533936 409.29646606 12.41955566 408.34405518 C14.93585809 405.8322724 17.44903476 403.3173846 19.96148372 400.80174804 C22.59802648 398.16265773 25.23702603 395.52602588 27.87562561 392.88899231 C32.29786948 388.46856125 36.71801472 384.04603994 41.13696289 379.62231445 C46.2475495 374.5062667 51.36175581 369.39385851 56.47781748 364.28328627 C60.87809964 359.8875365 65.27643725 355.48984816 69.67314345 351.09052163 C72.29612126 348.46598434 74.91977132 345.84212866 77.54517937 343.2200222 C80.46389164 340.30472529 83.37851477 337.38537383 86.29272461 334.46557617 C87.6009594 333.16037773 87.6009594 333.16037773 88.93562317 331.82881165 C89.72478119 331.0368338 90.51393921 330.24485596 91.32701111 329.42887878 C92.01626143 328.73925143 92.70551176 328.04962408 93.41564846 327.33909893 C95.07950835 325.70304543 95.07950835 325.70304543 96 323.62890625 C94.72125 323.36078125 93.4425 323.09265625 92.125 322.81640625 C88.7935889 322.09958559 85.69944228 321.16384151 82.5 320.00390625 C71.60491537 316.68948893 59.09348871 317.38623228 49 322.62890625 C41.00460397 327.84632533 34.42292503 334.93247138 27.74267578 341.68041992 C25.87715205 343.5642331 24.00371729 345.43988716 22.12890625 347.31445312 C16.82674273 352.63253058 11.59775723 357.95139526 6.72265625 363.66821289 C2.8505979 368.07531331 -1.31277744 372.2102101 -5.4375 376.37890625 C-6.34048828 377.31089844 -7.24347656 378.24289062 -8.17382812 379.203125 C-14.7939209 385.88553581 -21.10187858 391.31447323 -30.88329983 391.76033401 C-32.57150136 391.76479601 -32.57150136 391.76479601 -34.29380798 391.76934814 C-35.58786057 391.77505829 -36.88191315 391.78076843 -38.21517944 391.78665161 C-39.64727774 391.78789688 -41.07937614 391.78902199 -42.51147461 391.79003906 C-44.02117534 391.79466885 -45.53087491 391.79969373 -47.04057312 391.80508423 C-51.13971436 391.81819218 -55.23883923 391.8246497 -59.33799815 391.82909489 C-61.89894948 391.83202736 -64.45989634 391.83613244 -67.02084541 391.84059906 C-75.03361901 391.85426791 -83.0463824 391.86393835 -91.05916685 391.86780095 C-100.30905393 391.87228452 -109.55879345 391.8898488 -118.80863565 391.91880155 C-125.95948144 391.94040779 -133.11028568 391.95050462 -140.26116377 391.95184207 C-144.53197979 391.95289058 -148.80265698 391.95880853 -153.07343864 391.97666168 C-157.0896373 391.9931248 -161.10559247 391.99530653 -165.12181282 391.98652267 C-166.59521257 391.98575143 -168.06862532 391.99010654 -169.54199219 391.99998093 C-171.55435789 392.01267624 -173.56682118 392.00504071 -175.57920837 391.99639893 C-177.26797545 391.99859877 -177.26797545 391.99859877 -178.99085903 392.00084305 C-182.38473497 391.58135212 -184.26849087 390.65369025 -187 388.62890625 C-188.54586876 385.53716873 -188.29359521 383.03461073 -188 379.62890625 C-186.42767334 377.4364624 -186.42767334 377.4364624 -184 375.62890625 C-180.74761963 375.10992432 -180.74761963 375.10992432 -176.84472656 375.08300781 C-176.13213181 375.07267014 -175.41953705 375.06233246 -174.68534851 375.05168152 C-172.33687671 375.02225276 -169.9892667 375.02075442 -167.640625 375.01953125 C-166.00964718 375.00454954 -164.37868453 374.98782241 -162.7477417 374.96942139 C-158.46025903 374.92573411 -154.172981 374.90574588 -149.88531494 374.89068604 C-145.50805554 374.87111981 -141.13101731 374.8291493 -136.75390625 374.7890625 C-128.16932868 374.71374552 -119.58483794 374.66346325 -111 374.62890625 C-108.10065092 363.94235755 -105.20555126 353.25466137 -102.3125 342.56640625 C-102.09278408 341.75482056 -101.87306816 340.94323486 -101.64669418 340.10705566 C-96.06338685 319.48167579 -90.51248896 298.84807253 -85.03125 278.1953125 C-84.78952749 277.28469496 -84.54780499 276.37407742 -84.29875755 275.4358654 C-81.93504795 266.52997035 -79.5746578 257.62320541 -77.2206974 248.71472836 C-76.34937061 245.41860601 -75.47642722 242.12291312 -74.60317993 238.82729912 C-74.00188367 236.55530297 -73.4030138 234.28267627 -72.80419922 232.01002502 C-72.44422746 230.65117865 -72.084128 229.2923661 -71.72387695 227.93359375 C-71.41335892 226.75780762 -71.10284088 225.58202148 -70.78291321 224.37060547 C-70 221.62890625 -70 221.62890625 -69 219.62890625 C-69.59280762 219.51571045 -70.18561523 219.40251465 -70.79638672 219.28588867 C-77.28912034 218.02007736 -83.71660261 216.58128048 -90.125 214.94140625 C-91.06214844 214.72291016 -91.99929688 214.50441406 -92.96484375 214.27929688 C-100.18470817 212.40617121 -106.19353666 209.25292755 -110.17578125 202.69165039 C-111.07937959 200.43024566 -111.40370929 198.50397948 -111.6328125 196.08203125 C-111.71660156 195.23769531 -111.80039062 194.39335937 -111.88671875 193.5234375 C-111.96535156 192.65074219 -112.04398438 191.77804688 -112.125 190.87890625 C-112.25455078 189.54666016 -112.25455078 189.54666016 -112.38671875 188.1875 C-112.59823066 186.00187689 -112.80240227 183.81582387 -113 181.62890625 C-113.49628906 182.42554688 -113.99257812 183.2221875 -114.50390625 184.04296875 C-122.84333035 197.05057142 -122.84333035 197.05057142 -130 200.62890625 C-140.26042175 201.77356626 -149.59111946 199.06203975 -159.3671875 196.39453125 C-161.01691993 195.95472686 -162.66691926 195.51592255 -164.31716919 195.07806396 C-167.75378062 194.16273495 -171.1874093 193.23716515 -174.61914062 192.30371094 C-179.00559687 191.1112009 -183.39791269 189.94221846 -187.79260063 188.78046036 C-191.19215126 187.87948833 -194.58866926 186.96750031 -197.9843483 186.05205536 C-199.60296488 185.61682763 -201.22241239 185.18467738 -202.84270859 184.75574493 C-205.10644021 184.15442429 -207.36575939 183.53867036 -209.62451172 182.91894531 C-210.28539291 182.74631165 -210.94627411 182.57367798 -211.62718201 182.39581299 C-218.06926909 180.59585258 -223.53522522 177.4447782 -227 171.62890625 C-229.17446647 163.29127389 -229.58460253 154.62860545 -230.125 146.06640625 C-230.21136719 144.81666016 -230.29773438 143.56691406 -230.38671875 142.27929688 C-230.62171025 138.73017924 -230.81500985 135.18092529 -231 131.62890625 C-231.1081604 130.23043457 -231.1081604 130.23043457 -231.21850586 128.80371094 C-231.54906267 122.30755109 -229.88275799 118.36535685 -226.3125 113.00390625 C-225.82136719 112.2361084 -225.33023438 111.46831055 -224.82421875 110.67724609 C-219.48140098 102.51031956 -213.40052743 94.98283104 -207 87.62890625 C-206.52030762 87.07477051 -206.04061523 86.52063477 -205.54638672 85.94970703 C-189.72260624 67.8091699 -171.27523921 53.77760078 -150 42.62890625 C-148.86433594 42.0153125 -147.72867188 41.40171875 -146.55859375 40.76953125 C-109.20532106 21.20559237 -65.60662844 16.30740712 -24.32177734 23.26513672 C-20.56109195 23.85435031 -16.78592984 24.2377821 -13 24.62890625 C-12.71334473 23.80483276 -12.71334473 23.80483276 -12.42089844 22.96411133 C-11.54082302 20.45282513 -10.64558011 17.94720284 -9.75 15.44140625 C-9.29947266 14.14493164 -9.29947266 14.14493164 -8.83984375 12.82226562 C-4.76105926 1.49712996 -4.76105926 1.49712996 0 0 Z M-94 39.62890625 C-95.35569092 39.91894531 -95.35569092 39.91894531 -96.73876953 40.21484375 C-111.23108141 43.42270646 -124.62160405 48.22895571 -138 54.62890625 C-138.69029297 54.95616699 -139.38058594 55.28342773 -140.09179688 55.62060547 C-169.06395668 69.57847167 -192.22333387 92.19504574 -210 118.62890625 C-209.67 119.28890625 -209.34 119.94890625 -209 120.62890625 C-205.99909772 121.59763065 -203.02996922 122.4467489 -199.98217773 123.24267578 C-199.03593536 123.49656067 -198.08969299 123.75044556 -197.11477661 124.01202393 C-193.97304118 124.85292779 -190.82838667 125.68232927 -187.68359375 126.51171875 C-185.51007147 127.09108364 -183.33673879 127.67116029 -181.16358948 128.25192261 C-175.43287902 129.78136449 -169.69963343 131.30108531 -163.96582031 132.81884766 C-158.1195426 134.36820025 -152.27569496 135.92666124 -146.43164062 137.484375 C-134.95679713 140.54151003 -123.47925695 143.58838873 -112 146.62890625 C-109.71527568 144.34418193 -109.02027857 142.54633061 -107.8203125 139.5546875 C-107.39242432 138.50611572 -106.96453613 137.45754395 -106.52368164 136.37719727 C-106.0621167 135.24338623 -105.60055176 134.1095752 -105.125 132.94140625 C-91.11877656 99.27765163 -71.72662671 67.11731699 -46.58203125 40.51953125 C-44.78608612 38.78413515 -44.78608612 38.78413515 -45 36.62890625 C-61.57282849 36.29241088 -77.72058387 36.108343 -94 39.62890625 Z M-30.37890625 44.53125 C-30.91386719 45.22347656 -31.44882812 45.91570313 -32 46.62890625 C-33.03782953 47.77821619 -34.07964949 48.92393271 -35.125 50.06640625 C-36.42449799 51.58055346 -37.71473743 53.10265695 -39 54.62890625 C-39.67675781 55.42699707 -39.67675781 55.42699707 -40.3671875 56.24121094 C-57.68820331 76.75943498 -72.57165589 99.43765541 -84.08984375 123.71435547 C-85.02589338 125.68337403 -85.9807877 127.64251155 -86.9375 129.6015625 C-90.25265961 136.46151052 -93.09194122 143.2291003 -95 150.62890625 C-89.1018026 152.65473361 -83.18406901 154.4742812 -77.16308594 156.09667969 C-76.33099609 156.32305618 -75.49890625 156.54943268 -74.64160156 156.78266907 C-71.92336976 157.52102994 -69.20401956 158.25514221 -66.484375 158.98828125 C-65.55006905 159.24052711 -64.61576309 159.49277298 -63.65314484 159.75266266 C-58.72047989 161.08396567 -53.78688352 162.41175265 -48.85253906 163.73681641 C-43.76023268 165.1051135 -38.6714729 166.48615797 -33.58337021 167.8699913 C-29.66139651 168.93410886 -25.73687311 169.98856789 -21.8115921 171.0404129 C-19.9335311 171.54550964 -18.05645655 172.05428923 -16.18041229 172.56682587 C-13.56268838 173.28106284 -10.9416402 173.98150922 -8.31933594 174.67871094 C-7.54728821 174.89266006 -6.77524048 175.10660919 -5.97979736 175.32704163 C-1.98698243 176.37223844 1.01775353 176.87964172 5 175.62890625 C5.48661561 171.62977736 5.96281967 167.62946792 6.4375 163.62890625 C6.63956055 161.96988281 6.63956055 161.96988281 6.84570312 160.27734375 C8.5548339 145.7705752 9.20757487 131.34630937 9.1875 116.75390625 C9.18722809 115.99977448 9.18695618 115.2456427 9.18667603 114.46865845 C9.4843913 80.58812981 9.4843913 80.58812981 3 47.62890625 C0.18021962 46.45374857 -2.53101883 45.47090804 -5.4375 44.56640625 C-6.25774658 44.30835205 -7.07799316 44.05029785 -7.9230957 43.78442383 C-9.54866868 43.28052355 -11.17649686 42.78383322 -12.80664062 42.29492188 C-14.60604995 41.74852955 -16.3913806 41.15597393 -18.171875 40.55078125 C-24.0939941 38.82196387 -26.44501667 39.81603362 -30.37890625 44.53125 Z M-214 135.62890625 C-214.68178413 151.0158277 -214.68178413 151.0158277 -211 165.62890625 C-208.03995605 167.22383364 -208.03995605 167.22383364 -204.3347168 168.05419922 C-203.6499527 168.24039322 -202.9651886 168.42658722 -202.25967407 168.61842346 C-199.99528881 169.22739909 -197.72327692 169.79940051 -195.44921875 170.37109375 C-193.87167667 170.78645313 -192.29468089 171.20389252 -190.71821594 171.62332153 C-187.41238531 172.49741355 -184.10285484 173.35486117 -180.78930664 174.19921875 C-176.54659561 175.2804251 -172.31162609 176.38874768 -168.07878399 177.50790215 C-164.03790833 178.57535355 -159.99382517 179.63038124 -155.94921875 180.68359375 C-155.17939856 180.88488766 -154.40957836 181.08618156 -153.61643028 181.29357529 C-151.43044912 181.86248274 -149.24242909 182.42266837 -147.0534668 182.97998047 C-145.18720894 183.45913406 -145.18720894 183.45913406 -143.2832489 183.94796753 C-140.36417696 184.55337674 -137.95915261 184.93694045 -135 184.62890625 C-132.91200619 182.63506847 -132.91200619 182.63506847 -131.1875 179.87890625 C-130.51074219 178.88761719 -129.83398438 177.89632812 -129.13671875 176.875 C-128.43160156 175.80378906 -127.72648437 174.73257813 -127 173.62890625 C-126.23694066 172.49394112 -125.47261129 171.35982884 -124.70703125 170.2265625 C-122.78855581 167.3709203 -120.88738234 164.50515647 -119 161.62890625 C-122.66078791 159.18838098 -126.36985799 158.30127202 -130.57055664 157.19873047 C-131.44560349 156.96435272 -132.32065033 156.72997498 -133.22221375 156.48849487 C-136.11676824 155.71472974 -139.01339217 154.94904159 -141.91015625 154.18359375 C-143.91901068 153.64878359 -145.92775256 153.11355053 -147.93638611 152.57791138 C-152.14621685 151.45652957 -156.35701678 150.33888941 -160.56860352 149.22412109 C-165.97640761 147.79261659 -171.38229343 146.35402454 -176.7875452 144.91291618 C-180.93470648 143.80766838 -185.08256843 142.705071 -189.23068047 141.60339737 C-191.22480773 141.07366729 -193.21878203 140.54336105 -195.21260262 140.01247787 C-197.99401579 139.27254466 -200.77628262 138.53591785 -203.55883789 137.80029297 C-204.38850067 137.57901733 -205.21816345 137.3577417 -206.07296753 137.12976074 C-209.98295478 136.02905301 -209.98295478 136.02905301 -214 135.62890625 Z M-97 166.62890625 C-97.11229523 173.32918817 -97.00954843 180.00222307 -96.625 186.69140625 C-96.52058594 188.56505859 -96.52058594 188.56505859 -96.4140625 190.4765625 C-96.21567787 193.78380732 -96.21567787 193.78380732 -94 196.62890625 C-91.75894765 197.59395113 -91.75894765 197.59395113 -89.04296875 198.25 C-87.97111328 198.54044189 -86.89925781 198.83088379 -85.79492188 199.13012695 C-84.60447266 199.43909912 -83.41402344 199.74807129 -82.1875 200.06640625 C-80.26943337 200.57295021 -78.35137892 201.07954121 -76.43362427 201.58726501 C-75.02035463 201.96092631 -73.60666141 202.33298841 -72.19259644 202.70362854 C-66.87276143 204.10582741 -61.58177676 205.59549995 -56.29524231 207.11820984 C-52.21868192 208.28889756 -48.13542492 209.43510022 -44.05117798 210.5786438 C-42.01739561 211.15372368 -39.98640129 211.73875661 -37.95834351 212.33370972 C-35.08339328 213.17461157 -32.20023354 213.97773051 -29.3125 214.7734375 C-28.01261894 215.16781509 -28.01261894 215.16781509 -26.68647766 215.57015991 C-24.3731993 216.18600567 -22.39388218 216.65188271 -20 216.62890625 C-16.98316003 214.64624598 -16.98316003 214.64624598 -15 211.62890625 C-14.44916748 210.90678955 -13.89833496 210.18467285 -13.33081055 209.44067383 C-12.61598511 208.36789185 -12.61598511 208.36789185 -11.88671875 207.2734375 C-11.36142578 206.48646484 -10.83613281 205.69949219 -10.29492188 204.88867188 C-9.76447266 204.08107422 -9.23402344 203.27347656 -8.6875 202.44140625 C-8.13771484 201.62220703 -7.58792969 200.80300781 -7.02148438 199.95898438 C-4.11260775 196.10064305 -4.11260775 196.10064305 -3 191.62890625 C-14.07463496 188.66384693 -25.14945991 185.69949838 -36.22452545 182.73604774 C-41.36755005 181.35986066 -46.51050981 179.98343226 -51.65332031 178.60644531 C-56.61983628 177.27667084 -61.58652396 175.9475395 -66.55332947 174.61884689 C-68.44471824 174.11275328 -70.33604587 173.6064311 -72.22731018 173.09987259 C-74.88379865 172.38839806 -77.54050676 171.67774924 -80.19726562 170.96728516 C-81.36036758 170.6554705 -81.36036758 170.6554705 -82.54696655 170.33735657 C-87.35336958 169.05317819 -92.17069584 167.82418509 -97 166.62890625 Z M20 198.62890625 C19.90459858 205.69921167 19.91488981 212.75484934 20.3125 219.81640625 C20.37050781 220.86183594 20.42851562 221.90726563 20.48828125 222.984375 C21.09066603 226.09746277 21.52626135 226.71413653 24 228.62890625 C27.12279625 229.79149472 27.12279625 229.79149472 30.79467773 230.71362305 C31.48119415 230.89937897 32.16771057 231.08513489 32.87503052 231.27651978 C35.14199659 231.88709462 37.41257038 232.48283494 39.68359375 233.078125 C41.26176181 233.49907014 42.83972661 233.92077797 44.41749573 234.34321594 C47.7237029 235.2261307 51.03163511 236.10214276 54.34106445 236.97290039 C58.58192805 238.08895996 62.8190927 239.21835195 67.05515957 240.35246563 C70.31315489 241.2238134 73.57252377 242.08992192 76.83238411 242.95426369 C78.3951969 243.36893468 79.95769338 243.78479968 81.51986504 244.2018795 C83.70392399 244.7837579 85.88961957 245.35901219 88.07592773 245.93237305 C89.31930405 246.26085739 90.56268036 246.58934174 91.84373474 246.92778015 C95.11193617 247.77347425 95.11193617 247.77347425 99 247.62890625 C100.85768483 245.7406086 100.85768483 245.7406086 102.453125 243.17578125 C103.071875 242.24636719 103.690625 241.31695312 104.328125 240.359375 C104.96234375 239.37582031 105.5965625 238.39226562 106.25 237.37890625 C106.8996875 236.41082031 107.549375 235.44273437 108.21875 234.4453125 C112.01385888 229.01165765 112.01385888 229.01165765 113 222.62890625 C101.31844129 219.49530951 89.63581788 216.36571758 77.95180798 213.24127197 C72.52682828 211.79043111 67.10222884 210.33819935 61.6784668 208.8828125 C56.44685045 207.47903951 51.21427702 206.07888938 45.98101234 204.68127441 C43.98192953 204.14670448 41.9831985 203.61081726 39.98482323 203.0736084 C37.19155949 202.32295359 34.39709568 201.5769397 31.60229492 200.83203125 C30.77151428 200.60761353 29.94073364 200.3831958 29.08477783 200.15197754 C25.9784244 199.32810331 23.22881208 198.62890625 20 198.62890625 Z M-1.9375 442.56640625 C-4.31282788 443.80512864 -6.44391207 444.77687694 -9 445.62890625 C-7.03293661 451.94542016 -4.65150643 457.93230974 -1.875 463.93359375 C-1.48683105 464.77938995 -1.09866211 465.62518616 -0.69873047 466.49661255 C0.1157691 468.26739995 0.93269392 470.03707369 1.75195312 471.80566406 C3.00456185 474.51376884 4.24481867 477.22730662 5.484375 479.94140625 C6.28051151 481.6683094 7.07736131 483.39488393 7.875 485.12109375 C8.24383301 485.9304538 8.61266602 486.73981384 8.99267578 487.57369995 C9.34313965 488.32523346 9.69360352 489.07676697 10.0546875 489.85107422 C10.35874512 490.51009735 10.66280273 491.16912048 10.97607422 491.84811401 C12.1216861 493.84054039 13.21109114 495.18266422 15 496.62890625 C19.82281569 497.24936986 19.82281569 497.24936986 24 495.12890625 C25.71202344 490.84884765 24.70472905 486.5757594 23.17602539 482.35263062 C22.09873519 479.86745339 20.95608024 477.42494219 19.78125 474.984375 C19.36331177 474.09277176 18.94537354 473.20116852 18.51477051 472.282547 C17.18700769 469.45541177 15.84405089 466.63582889 14.5 463.81640625 C13.15932976 460.97763677 11.82178427 458.13741629 10.48522949 455.29670715 C9.65477046 453.53456314 8.82129609 451.77383636 7.98449707 450.01469421 C7.60740601 449.21989151 7.23031494 448.42508881 6.84179688 447.60620117 C6.50950073 446.90863205 6.17720459 446.21106293 5.83483887 445.49235535 C5 443.62890625 5 443.62890625 4 440.62890625 C1.51736461 440.62890625 0.25508642 441.41907518 -1.9375 442.56640625 Z M-279 447.62890625 C-281.06759988 451.98269555 -283.13198937 456.33774967 -285.18896484 460.6965332 C-285.8874058 462.17425169 -286.58755677 463.65116335 -287.28955078 465.12719727 C-290.54534263 471.97550693 -293.80115395 478.83930715 -296.671875 485.859375 C-297.00799805 486.67172607 -297.34412109 487.48407715 -297.69042969 488.32104492 C-298.12697986 491.57554711 -296.88317936 493.03743911 -295 495.62890625 C-293.84133079 496.9952678 -293.84133079 496.9952678 -290.6875 497.00390625 C-286.95384674 497.02269375 -286.95384674 497.02269375 -284.99023438 494.56738281 C-282.7559948 491.26864538 -281.07221951 487.86913985 -279.46875 484.23828125 C-279.15095581 483.53423157 -278.83316162 482.83018188 -278.5057373 482.10479736 C-277.49702265 479.8658175 -276.49838988 477.62250614 -275.5 475.37890625 C-274.83008635 473.88772448 -274.15951911 472.39683616 -273.48828125 470.90625 C-272.21046232 468.06565252 -270.93831978 465.22263928 -269.671875 462.37695312 C-268.67124357 460.12863121 -267.66132376 457.88586226 -266.640625 455.64648438 C-264.70920744 451.79419202 -264.70920744 451.79419202 -264 447.62890625 C-268.95 447.62890625 -273.9 447.62890625 -279 447.62890625 Z M-246 447.62890625 C-260.86418757 471.76817287 -260.86418757 471.76817287 -268 497.62890625 C-226.75 497.62890625 -185.5 497.62890625 -143 497.62890625 C-134.24910969 472.9283209 -134.24910969 472.9283209 -130 447.62890625 C-168.28 447.62890625 -206.56 447.62890625 -246 447.62890625 Z M-113 447.62890625 C-114.97870812 453.56503061 -116.84788518 459.43410955 -118.48046875 465.4609375 C-118.69818436 466.25996994 -118.91589996 467.05900238 -119.14021301 467.88224792 C-119.59443702 469.55320727 -120.04728 471.22454261 -120.4987793 472.89624023 C-121.19087135 475.45386506 -121.89116296 478.00915686 -122.59179688 480.56445312 C-123.03435424 482.19647906 -123.47642888 483.82863599 -123.91796875 485.4609375 C-124.12729538 486.2213887 -124.33662201 486.9818399 -124.55229187 487.76533508 C-125.47450251 491.2088609 -126 494.03558715 -126 497.62890625 C-85.74 497.62890625 -45.48 497.62890625 -4 497.62890625 C-5.646237 492.64663552 -5.646237 492.64663552 -7.63232422 487.87768555 C-8.09322952 486.87084969 -8.09322952 486.87084969 -8.56344604 485.84367371 C-8.89055573 485.13729263 -9.21766541 484.43091156 -9.5546875 483.703125 C-9.89750763 482.95609818 -10.24032776 482.20907135 -10.59353638 481.43940735 C-11.68444771 479.06372303 -12.77956579 476.69000796 -13.875 474.31640625 C-14.96239981 471.95311431 -16.04891746 469.58941922 -17.13504028 467.22554016 C-17.80864341 465.7602551 -18.48311818 464.29537026 -19.15866089 462.83097839 C-21.48461461 457.78199972 -23.74171528 452.71004687 -26 447.62890625 C-54.71 447.62890625 -83.42 447.62890625 -113 447.62890625 Z " fill="#000000" transform="translate(368,-0.62890625)"/>
</svg>
